<svg width="17" height="16" viewBox="0 0 17 16" fill="none" xmlns="http://www.w3.org/2000/svg">
<path d="M10.8775 8.54659L16.2883 11.7026L13.9783 12.363L15.6294 15.223L14.2837 16L12.6326 13.1408L10.9055 14.8112L10.8775 8.54659ZM9.32356 3.10785H10.8775V4.66178H14.7623C14.9684 4.66178 15.166 4.74364 15.3117 4.88935C15.4574 5.03505 15.5393 5.23268 15.5393 5.43874V8.54659H13.9853V6.2157H6.2157V13.9853H9.32356V15.5393H5.43874C5.23268 15.5393 5.03505 15.4574 4.88935 15.3117C4.74364 15.166 4.66178 14.9684 4.66178 14.7623V10.8775H3.10785V9.32356H4.66178V5.43874C4.66178 5.23268 4.74364 5.03505 4.88935 4.88935C5.03505 4.74364 5.23268 4.66178 5.43874 4.66178H9.32356V3.10785ZM1.55393 9.32356V10.8775H0V9.32356H1.55393ZM1.55393 6.2157V7.76963H0V6.2157H1.55393ZM1.55393 3.10785V4.66178H0V3.10785H1.55393ZM1.55393 0V1.55393H0V0H1.55393ZM4.66178 0V1.55393H3.10785V0H4.66178ZM7.76963 0V1.55393H6.2157V0H7.76963ZM10.8775 0V1.55393H9.32356V0H10.8775Z" fill="#8F8F8F"/>
</svg>
