<svg width="32" height="32" fill="none" xmlns="http://www.w3.org/2000/svg">
  <path d="M22.865 16.985v-3.45a.569.569 0 0 0-.293-.515.56.56 0 0 0-.588.03L8.387 22.523c-.717.5-1.65.557-2.423.15a2.366 2.366 0 0 1-1.258-2.092v-4.566a4.742 4.742 0 0 1 2.038-3.883l4.042-2.814a2.334 2.334 0 0 0 1.002-1.942V1.054a.569.569 0 0 0-.294-.52.56.56 0 0 0-.592.034L8.07 2.558a2.354 2.354 0 0 0-1.002 1.94v1.66l-3.47 2.427A8.413 8.413 0 0 0 0 15.457v5.115a7.116 7.116 0 0 0 3.78 6.307 7.015 7.015 0 0 0 7.3-.455l10.783-7.497a2.354 2.354 0 0 0 1.002-1.942Z" fill="#FFA600"/>
  <path d="M18.852 6.6 8.06 14.103a2.349 2.349 0 0 0-1.007 1.94v3.451a.573.573 0 0 0 .297.514.565.565 0 0 0 .59-.028l13.595-9.478c.718-.5 1.65-.558 2.423-.15a2.366 2.366 0 0 1 1.258 2.09v4.543a4.741 4.741 0 0 1-2.028 3.883l-3.613 2.513-.415.287a2.344 2.344 0 0 0-1.002 1.94v6.334a.568.568 0 0 0 .294.519.56.56 0 0 0 .593-.034l2.837-1.97a2.349 2.349 0 0 0 1.002-1.941v-1.64l3.46-2.427a8.409 8.409 0 0 0 3.598-6.906v-5.095a7.116 7.116 0 0 0-3.784-6.312 7.015 7.015 0 0 0-7.306.464Z" fill="#B3CB2D"/>
</svg>